# xmcd
#
# Track frame offsets:
#	150
#	18544
#	38384
#	56962
#	72809
#
# Disc length: 1353 seconds
#
# Revision: 1
# Processed by: cddbd v1.5.2PL0 Copyright (c) Steve Scherf et al.
# Submitted via: EasyCDDAExtractor 11.0.0.1
#
DISCID=3b054705
DTITLE=ΓΑΡΜΠΗ ΚΑΙΤΗ - REMIXES ΓΑΡΜΠΗ ΚΑΙΤΗ
DYEAR=2000
DGENRE=ΛΑΪΚΑ
TTITLE0=ΚΡΑΓΙΟΝ remix
TTITLE1=ΟΤΑΝ ΣΕ ΧΡΕΙΑΖΟΜΑΙ
TTITLE2=ΑΠΛΑ ΤΑ ΠΡΑΓΜΑΤΑ
TTITLE3=ΘΕΛΩ ΑΠΟΨΕ ΝΑ ΧΟΡΕΨΩ
TTITLE4=ΚΡΑΓΙΟΝ EXTENDED VERSION
EXTD=
EXTT0=
EXTT1=
EXTT2=
EXTT3=
EXTT4=
PLAYORDER=
